<svg width="193" height="98" viewBox="0 0 193 98" fill="none" xmlns="http://www.w3.org/2000/svg">
<path d="M129.504 68.5502H132.661V65.3643H129.504V68.5502Z" fill="#0096D5"/>
<path d="M33.4813 51.6002V64.1854H32.8649C32.102 64.176 31.4819 64.0396 31.0067 63.7679C30.531 63.4956 30.172 63.1388 29.9203 62.694C29.6686 62.2528 29.4966 61.7744 29.3982 61.2529C29.3007 60.7367 29.2497 60.2247 29.2403 59.7237C29.2252 59.2211 29.2252 58.7757 29.2309 58.3865V57.1751C29.2309 56.1852 29.296 55.35 29.4169 54.6838C29.5383 54.0128 29.7061 53.4688 29.9297 53.0607C30.149 52.6483 30.4096 52.3372 30.7133 52.1263C31.0114 51.9149 31.3412 51.7749 31.7008 51.6993C32.0603 51.629 32.4423 51.596 32.8388 51.6007H33.4818L33.4813 51.6002ZM36.0533 49.4325V48.2222H33.4813V49.4325H32.9774C32.5538 49.4278 32.1057 49.4414 31.6299 49.4792C31.1609 49.5217 30.6842 49.6156 30.2043 49.7661C29.7285 49.9209 29.2773 50.1643 28.8489 50.5022C28.4149 50.8411 28.0324 51.3048 27.6974 51.8913C27.3608 52.4831 27.0955 53.238 26.9001 54.1487C26.7042 55.0636 26.6068 56.1758 26.6016 57.4852V59.0055C26.6068 60.4366 26.7553 61.629 27.0585 62.5807C27.3571 63.5344 27.7901 64.2893 28.3586 64.847C28.9214 65.4062 29.6024 65.7996 30.3991 66.0352C31.1969 66.2744 32.0921 66.3867 33.0884 66.3809H33.4808V68.5501H36.0528V66.3809H36.4441C37.442 66.3867 38.3361 66.2739 39.1328 66.0352C39.9301 65.7991 40.6111 65.4062 41.1791 64.847C41.7429 64.2893 42.1775 63.5344 42.4755 62.5807C42.7793 61.629 42.9268 60.4366 42.9325 59.0055V57.4852C42.9268 56.1758 42.8288 55.0636 42.6339 54.1487C42.4427 53.238 42.1769 52.4831 41.8367 51.8913C41.5006 51.3048 41.1186 50.8411 40.6898 50.5022C40.2563 50.1643 39.8035 49.9209 39.3298 49.7661C38.8541 49.6156 38.3773 49.5217 37.9026 49.4792C37.4284 49.4414 36.9787 49.4278 36.5556 49.4325H36.0523H36.0533ZM36.0533 64.1854V51.6002H36.6968C37.097 51.5954 37.4748 51.6285 37.8333 51.6988C38.1918 51.7743 38.5232 51.9149 38.8264 52.1258C39.125 52.3367 39.3861 52.6473 39.6054 53.0601C39.8295 53.4678 40.0015 54.0123 40.1224 54.6833C40.2443 55.3495 40.3047 56.1852 40.3047 57.1746V58.3859C40.3089 58.7752 40.3089 59.2206 40.299 59.7231C40.286 60.2241 40.2349 60.7362 40.1375 61.2524C40.0379 61.7738 39.8649 62.2523 39.6143 62.6935C39.3673 63.1383 39.0047 63.4956 38.5289 63.7673C38.0542 64.0396 37.4336 64.1755 36.6687 64.1849H36.0538L36.0533 64.1854ZM49.9675 68.9719C51.3931 68.9767 52.577 68.718 53.5139 68.1877C54.4565 67.6578 55.1553 66.8132 55.6216 65.6549C56.087 64.5007 56.3162 62.9851 56.3162 61.117V54.4446C56.3162 53.0837 56.087 51.9107 55.6216 50.9208C55.1553 49.9304 54.4565 49.1613 53.5139 48.6215C52.577 48.0816 51.3931 47.8041 49.9675 47.7999C48.5418 47.8041 47.3616 48.0816 46.42 48.6215C45.4785 49.1608 44.7792 49.9304 44.3133 50.9208C43.8522 51.9107 43.6193 53.0837 43.6193 54.4446V61.117C43.6193 62.9851 43.8522 64.5007 44.3133 65.6549C44.7792 66.8132 45.4785 67.6578 46.42 68.1877C47.3616 68.718 48.5418 68.9767 49.9675 68.9719ZM49.9675 66.8032C49.3568 66.809 48.8201 66.7287 48.3595 66.5588C47.8973 66.3904 47.5059 66.1002 47.1943 65.6869C46.8812 65.2687 46.6441 64.7006 46.4857 63.9782C46.3262 63.2511 46.2476 62.3352 46.2476 61.2288V54.3591C46.2533 53.5144 46.3544 52.8152 46.5555 52.2706C46.7566 51.7214 47.0125 51.2901 47.3241 50.9759C47.6373 50.6616 47.9634 50.4313 48.3074 50.2855C48.6523 50.1454 48.9743 50.0505 49.2677 50.0138C49.5668 49.9755 49.7992 49.9618 49.968 49.9676C50.1353 49.9618 50.3687 49.9755 50.6668 50.0138C50.9653 50.0505 51.2822 50.1454 51.6271 50.2855C51.9726 50.4313 52.2977 50.6616 52.6109 50.9759C52.923 51.2906 53.1789 51.7214 53.38 52.2706C53.5801 52.8152 53.6833 53.5144 53.6879 54.3591V61.2288C53.6879 62.3352 53.6093 63.2511 53.4498 63.9782C53.2909 64.7006 53.0533 65.2682 52.7417 65.6869C52.429 66.0997 52.0377 66.3904 51.5766 66.5588C51.1149 66.7287 50.5782 66.809 49.9685 66.8032H49.9675ZM59.9096 50.4738H63.4612C63.5779 50.4696 63.7509 50.4885 63.9744 50.5305C64.1985 50.5725 64.4398 50.6569 64.7055 50.7792C64.9718 50.9072 65.2276 51.095 65.4704 51.3426C65.7133 51.5912 65.9128 51.9244 66.0718 52.3372C66.2296 52.7496 66.3083 53.2663 66.3146 53.8817C66.3083 54.5154 66.2203 55.0405 66.0431 55.4634C65.8706 55.8851 65.6429 56.2235 65.3584 56.4764C65.0776 56.7256 64.7753 56.9176 64.4533 57.0398C64.1318 57.1662 63.815 57.2517 63.5117 57.289C63.2126 57.331 62.9531 57.3498 62.7332 57.3456H59.909V50.4749L59.9096 50.4738ZM59.9096 68.5501V59.5967H63.2939C63.7123 59.6014 64.174 59.5553 64.6774 59.4603C65.176 59.3664 65.6752 59.197 66.1786 58.9635C66.6772 58.728 67.1337 58.3996 67.5485 57.9773C67.9679 57.5602 68.2988 57.0251 68.5562 56.3725C68.8074 55.7257 68.9377 54.9403 68.9423 54.0212C68.9377 53.0691 68.8303 52.2523 68.6156 51.5818C68.4051 50.9066 68.1164 50.3527 67.7439 49.9109C67.376 49.4739 66.9524 49.1314 66.4719 48.8832C65.992 48.6388 65.4829 48.4662 64.9478 48.367C64.4127 48.2637 63.8666 48.2159 63.321 48.2217H57.337V68.5491H59.909L59.9096 68.5501ZM72.3408 50.4738H72.3976L77.7943 68.5501H80.2267L85.7355 50.4738H85.7917V68.5501H88.3643V48.2228H84.1139L79.1074 65.2845H79.0517L74.1015 48.2228H69.9345V68.5501H72.3397V50.4738H72.3408ZM103.424 48.2222H100.797L96.4894 59.6529L91.6507 48.2222H89.0224L95.2872 62.8907L94.5036 64.9173C94.378 65.2651 94.2284 65.5373 94.056 65.7388C93.8845 65.9408 93.6516 66.0866 93.3572 66.1695C93.0633 66.2602 92.6725 66.3017 92.1827 66.2975H91.6246V68.5501H92.2952C92.957 68.5501 93.5245 68.4924 94.0012 68.376C94.4811 68.2632 94.8912 68.0801 95.2367 67.8362C95.5801 67.5922 95.8839 67.2785 96.1455 66.8934C96.4117 66.5084 96.6629 66.0483 96.8958 65.5132C97.1329 64.9744 97.3804 64.3554 97.6362 63.6509L103.425 48.2222H103.424Z" fill="white"/>
<path d="M117.941 63.706C117.95 63.706 118.081 63.706 118.334 63.706C118.58 63.706 118.911 63.706 119.317 63.706C119.727 63.706 120.175 63.706 120.659 63.706C121.149 63.706 121.637 63.706 122.122 63.706C122.607 63.706 123.055 63.706 123.461 63.706C123.87 63.706 124.197 63.706 124.444 63.706C124.687 63.706 124.817 63.706 124.821 63.706L126.108 68.5497H128.735L122.836 48.2223H119.76L113.916 68.5497H116.712L117.942 63.706H117.941ZM124.234 61.4544H118.529L121.325 50.6717H121.382L124.234 61.4544Z" fill="white"/>
<path d="M104.461 63.6882L103.231 68.5303H100.434L106.279 48.2029H109.355L115.254 68.5303H112.626L111.34 63.6882L110.753 61.436L107.9 50.6528H107.845L104.461 63.6882Z" fill="white"/>
<path d="M162.126 62.5188C162.13 62.0498 162.092 61.5467 162.018 61.0116C161.939 60.4728 161.789 59.9424 161.571 59.4215C161.085 58.2296 160.176 57.4054 158.989 56.9485C158.318 56.6904 157.488 56.555 156.505 56.5503H153.512V48.2726H149.289V68.6H156.756C158.037 68.5953 159.073 68.3419 159.865 67.8487C160.653 67.3572 161.23 66.6537 161.59 65.7466C161.953 64.8407 162.13 63.7626 162.126 62.5188H162.126ZM157.847 62.406C157.851 62.9641 157.79 63.4762 157.661 63.9404C157.529 64.3995 157.293 64.7704 156.952 65.0484C156.611 65.3249 156.127 65.4707 155.498 65.4749H153.512V59.6749H155.722C156.039 59.6791 156.327 59.7541 156.584 59.9099C156.845 60.0647 157.069 60.2708 157.255 60.5336C157.445 60.7912 157.591 61.0871 157.693 61.4066C157.796 61.7297 157.847 62.0629 157.847 62.406ZM162.476 65.4754H161.162V70.9366H165.386V68.6H173.97V70.9366H178.192V65.4754H162.476ZM182.738 64.0957H187.435L188.499 68.6H192.665L187.323 48.2726H182.374L177.395 68.6H181.787L182.738 64.0957ZM186.68 60.9701H183.409L184.919 53.8192H184.974L186.68 60.9701Z" fill="white"/>
<path d="M167.601 64.0957L166.65 68.6H162.26L167.238 48.2726H172.188L177.529 68.6H173.362L172.3 64.0957L171.544 60.9696L169.838 53.8192H169.782L167.601 64.0957Z" fill="white"/>
<path d="M139.005 64.0957L138.054 68.6H133.664L138.642 48.2726H143.593L148.934 68.6H144.767L143.703 64.0957L142.949 60.9696L141.243 53.8192H141.186L139.005 64.0957Z" fill="white"/>
<path d="M0.164062 68.3378H21.6281V26.4523H0.164062V68.3378Z" fill="#0096D5"/>
<path d="M27.043 20.5284H55.0704V0.000610352H27.043V20.5284Z" fill="#AA2E32"/>
<path d="M27.043 40.37H40.5705V26.4532H27.043V40.37Z" fill="#AA2E32"/>
<path d="M0.164062 20.5972H21.577V0.00012207H0.164062V20.5972Z" fill="white"/>
<path d="M2.73511 95.7725H3.90961V87.5199H6.65774V86.5022H0V87.5199H2.73511V95.7725ZM12.5683 90.4367H9.08594V87.5073H12.7829V86.5022H7.91248V95.7725H12.9825V94.7684H9.08646V91.4261H12.5688V90.4362L12.5683 90.4367ZM21.0279 95.7725L18.2261 91.0138L20.9612 86.5027H19.6137L18.3996 88.6756C18.0656 89.2674 17.8394 89.6939 17.5852 90.2442H17.545C17.3053 89.7495 17.0516 89.281 16.7181 88.6756L15.5311 86.5027H14.1836L16.8254 91.0825L14.0763 95.7725H15.4112L16.4914 93.737C16.9448 92.9249 17.2115 92.4302 17.4653 91.8946H17.4924C17.7727 92.4302 18.052 92.9396 18.5189 93.7234L19.6799 95.7725H21.0274H21.0279ZM22.6297 86.5022V95.7725H23.8031V91.4261H28.153V95.7725H29.3275V86.5022H28.153V90.3811H23.8031V86.5022H22.6297ZM35.2386 86.3374C32.8364 86.3374 31.0757 88.2622 31.0757 91.2063C31.0757 94.0119 32.7301 95.9241 35.1182 95.9241C37.4135 95.9241 39.2946 94.2175 39.2946 91.0411C39.2946 88.2769 37.7069 86.3374 35.2386 86.3374ZM35.1984 87.3143C37.1327 87.3143 38.0669 89.239 38.0669 91.0956C38.0669 93.1998 37.0269 94.9473 35.1849 94.9473C33.3439 94.9473 32.3034 93.1725 32.3034 91.1775C32.3034 89.1562 33.2642 87.3137 35.1984 87.3137V87.3143ZM41.6431 86.5022V90.4079C41.6431 91.8941 41.5758 93.7092 40.8552 94.4242C40.6421 94.6446 40.2685 94.8639 39.9074 94.9189L40.0554 95.8821C40.5754 95.8821 41.1084 95.6623 41.443 95.442C42.6972 94.5617 42.7905 92.3211 42.7905 90.3119V87.5068H45.7522V95.7719H46.9262V86.5017H41.6431V86.5022ZM52.8383 86.3374C50.4362 86.3374 48.6744 88.2622 48.6744 91.2063C48.6744 94.0119 50.3299 95.9241 52.7174 95.9241C55.0122 95.9241 56.8933 94.2175 56.8933 91.0411C56.8933 88.2769 55.3061 86.3374 52.8383 86.3374ZM52.7971 87.3143C54.7319 87.3143 55.6667 89.239 55.6667 91.0956C55.6667 93.1998 54.6256 94.9473 52.7836 94.9473C50.9426 94.9473 49.9026 93.1725 49.9026 91.1775C49.9026 89.1562 50.8629 87.3137 52.7971 87.3137V87.3143ZM58.654 86.5022V95.7725H59.8285V87.5073H63.4447V86.5022H58.654ZM64.7125 86.5022V95.7725H65.9537L68.768 91.1517C69.3818 90.1335 69.9962 89.0612 70.4365 88.0429L70.4766 88.0576C70.3833 89.2259 70.3698 90.3265 70.3698 91.8253V95.773H71.463V86.5027H70.3026L67.3939 91.2756C66.74 92.3751 66.1798 93.3797 65.739 94.3429L65.6989 94.3282C65.7791 93.0912 65.8057 91.8673 65.8057 90.4089V86.5032H64.7125V86.5022ZM73.7583 86.5022V95.7725H74.9995L77.8149 91.1517C78.4287 90.1335 79.042 89.0612 79.4828 88.0429L79.5224 88.0576C79.4297 89.2259 79.4161 90.3265 79.4161 91.8253V95.773H80.5093V86.5027H79.3494L76.4403 91.2756C75.7869 92.3751 75.2262 93.3797 74.7854 94.3429L74.7452 94.3282C74.8265 93.0912 74.8521 91.8673 74.8521 90.4089V86.5032H73.7583V86.5022ZM89.0898 86.5022V90.4079C89.0898 91.8941 89.0237 93.7092 88.3025 94.4242C88.0894 94.6446 87.7152 94.8639 87.3552 94.9189L87.5016 95.8821C88.0216 95.8821 88.5552 95.6623 88.8892 95.442C90.1434 94.5617 90.2367 92.3211 90.2367 90.3119V87.5068H93.1995V95.7719H94.3735V86.5017H89.0898V86.5022ZM101.298 90.4362H97.8152V87.5068H101.512V86.5017H96.6412V95.7719H101.712V94.7678H97.8157V91.4256H101.299V90.4357L101.298 90.4362ZM104.874 86.5022V88.8545C104.874 90.4504 104.754 91.6884 104.447 92.7602C104.231 93.4899 103.899 94.163 103.565 94.7957L102.895 94.824L102.962 97.9999H103.872L103.952 95.7719H109.625L109.705 97.9999H110.612L110.692 94.824L109.905 94.7957V86.5022H104.875H104.874ZM105.954 87.4926H108.744V94.7815H104.767C105.021 94.2868 105.314 93.6683 105.502 93.022C105.821 91.977 105.954 90.7252 105.954 89.2396V87.4932V87.4926ZM115.935 86.338C113.533 86.338 111.772 88.2627 111.772 91.2068C111.772 94.0124 113.427 95.9246 115.815 95.9246C118.11 95.9246 119.991 94.2181 119.991 91.0416C119.991 88.2774 118.403 86.338 115.935 86.338ZM115.895 87.3148C117.829 87.3148 118.763 89.2396 118.763 91.0961C118.763 93.2003 117.723 94.9478 115.881 94.9478C114.04 94.9478 112.999 93.1731 112.999 91.178C112.999 89.1567 113.96 87.3143 115.895 87.3143V87.3148ZM121.765 95.7457C122.152 95.8008 122.766 95.8564 123.567 95.8564C125.033 95.8564 126.047 95.581 126.662 94.9887C127.129 94.5496 127.436 93.9306 127.436 93.1321C127.436 91.7571 126.434 91.0279 125.582 90.8212V90.7809C126.516 90.4372 127.102 89.6524 127.102 88.7443C127.102 88.0162 126.808 87.4659 126.341 87.1081C125.795 86.6401 125.047 86.4335 123.887 86.4335C123.086 86.4335 122.272 86.5163 121.765 86.6401V95.7457ZM122.925 87.4381C123.113 87.3972 123.419 87.3557 123.953 87.3557C125.127 87.3557 125.914 87.7959 125.914 88.8681C125.914 89.7631 125.194 90.4372 123.98 90.4372H122.925V87.4381ZM122.925 91.3301H123.887C125.154 91.3301 126.208 91.8668 126.208 93.118C126.208 94.4657 125.101 94.9195 123.9 94.9195C123.487 94.9195 123.165 94.9058 122.925 94.8644V91.3296V91.3301ZM129.265 86.5027V95.7457C129.651 95.8008 130.265 95.8564 131.065 95.8564C132.278 95.8564 133.533 95.5663 134.267 94.7694C134.694 94.302 134.96 93.6557 134.96 92.8022C134.96 90.753 133.346 89.9006 131.505 89.9006C131.211 89.9006 130.691 89.9278 130.424 89.9829V86.5032H129.265V86.5027ZM130.424 90.9183C130.572 90.9041 130.917 90.8632 131.345 90.8632C132.546 90.8632 133.747 91.3988 133.747 92.8441C133.747 94.2469 132.639 94.92 131.358 94.92C130.971 94.92 130.665 94.9063 130.424 94.8513V90.9183H130.424ZM135.961 86.5027V95.773H137.135V86.5027H135.961ZM145.755 95.773L142.953 91.0143L145.688 86.5032H144.341L143.126 88.6761C142.793 89.2679 142.567 89.6944 142.313 90.2447H142.273C142.032 89.75 141.78 89.2815 141.445 88.6761L140.258 86.5032H138.911L141.552 91.083L138.804 95.773H140.138L141.218 93.7375C141.671 92.9254 141.939 92.4307 142.192 91.8951H142.219C142.499 92.4307 142.78 92.9401 143.246 93.7239L144.407 95.773H145.754H145.755ZM153.014 86.5027V95.773H154.188V87.5078H158.364V95.773H159.538V86.5027H153.014ZM165.449 86.338C163.048 86.338 161.286 88.2627 161.286 91.2068C161.286 94.0124 162.94 95.9246 165.328 95.9246C167.625 95.9246 169.505 94.2181 169.505 91.0416C169.505 88.2774 167.917 86.338 165.449 86.338ZM165.41 87.3148C167.343 87.3148 168.278 89.2396 168.278 91.0961C168.278 93.2003 167.238 94.9478 165.396 94.9478C163.555 94.9478 162.514 93.1731 162.514 91.178C162.514 89.1567 163.474 87.3143 165.41 87.3143V87.3148ZM171.853 86.5027V90.4084C171.853 91.8946 171.787 93.7097 171.066 94.4248C170.853 94.6451 170.479 94.8644 170.119 94.9195L170.265 95.8826C170.786 95.8826 171.32 95.6628 171.654 95.4425C172.907 94.5622 173.001 92.3216 173.001 90.3124V87.5073H175.963V95.7725H177.137V86.5022H171.853V86.5027ZM184.063 90.4367H180.58V87.5073H184.276V86.5022H179.405V95.7725H184.476V94.7684H180.58V91.4261H184.064V90.4362L184.063 90.4367ZM186.251 86.5027V95.773H187.491L190.307 91.1523C190.92 90.134 191.533 89.0617 191.975 88.0435L192.015 88.0582C191.921 89.2265 191.908 90.3271 191.908 91.8259V95.7735H193.001V86.5032H191.84L188.933 91.2761C188.279 92.3757 187.718 93.3803 187.277 94.3434L187.237 94.3288C187.318 93.0917 187.343 91.8678 187.343 90.4094V86.5038H186.251V86.5027ZM187.919 84.5632C187.985 85.4713 188.506 86.0489 189.599 86.0489C190.735 86.0489 191.268 85.485 191.334 84.5632H190.441C190.385 85.0175 190.24 85.4168 189.627 85.4168C188.999 85.4168 188.866 84.9903 188.811 84.5632H187.918H187.919Z" fill="#0096D5"/>
</svg>
