<svg width="122" height="62" viewBox="0 0 122 62" fill="none" xmlns="http://www.w3.org/2000/svg">
<path d="M81.8633 43.3686H83.8587V41.353H81.8633V43.3686Z" fill="#0096D5"/>
<path d="M21.1652 32.645V40.6071H20.7756C20.2934 40.6011 19.9014 40.5148 19.601 40.3429C19.3003 40.1706 19.0733 39.9449 18.9142 39.6635C18.7552 39.3844 18.6465 39.0817 18.5842 38.7518C18.5226 38.4252 18.4903 38.1013 18.4844 37.7843C18.4748 37.4664 18.4748 37.1846 18.4785 36.9383V36.172C18.4785 35.5457 18.5196 35.0173 18.5961 34.5958C18.6728 34.1713 18.7789 33.8272 18.9202 33.5689C19.0588 33.3081 19.2235 33.1113 19.4156 32.9778C19.604 32.8441 19.8125 32.7555 20.0397 32.7077C20.267 32.6632 20.5085 32.6423 20.7591 32.6453H21.1656L21.1652 32.645ZM22.7911 31.2736V30.5079H21.1652V31.2736H20.8467C20.5789 31.2706 20.2957 31.2792 19.9949 31.3031C19.6985 31.33 19.3971 31.3894 19.0938 31.4847C18.793 31.5826 18.5078 31.7366 18.237 31.9503C17.9627 32.1647 17.7209 32.4581 17.5091 32.8292C17.2963 33.2035 17.1287 33.6811 17.0051 34.2573C16.8813 34.8361 16.8197 35.5397 16.8164 36.3681V37.33C16.8197 38.2354 16.9136 38.9898 17.1053 39.5918C17.294 40.1952 17.5677 40.6728 17.9271 41.0256C18.2828 41.3794 18.7133 41.6283 19.2169 41.7773C19.7212 41.9287 20.2871 41.9997 20.9169 41.996H21.1649V43.3684H22.7907V41.996H23.0381C23.6689 41.9997 24.2341 41.9283 24.7377 41.7773C25.2417 41.628 25.6722 41.3794 26.0312 41.0256C26.3876 40.6728 26.6623 40.1952 26.8507 39.5918C27.0427 38.9898 27.136 38.2354 27.1396 37.33V36.3681C27.136 35.5397 27.074 34.8361 26.9508 34.2573C26.83 33.6811 26.662 33.2035 26.4469 32.8292C26.2344 32.4581 25.993 32.1647 25.7219 31.9503C25.4479 31.7366 25.1616 31.5826 24.8622 31.4847C24.5615 31.3894 24.2601 31.33 23.9601 31.3031C23.6603 31.2792 23.3761 31.2706 23.1086 31.2736H22.7904H22.7911ZM22.7911 40.6071V32.645H23.1979C23.4508 32.642 23.6896 32.6629 23.9162 32.7074C24.1429 32.7551 24.3524 32.8441 24.5441 32.9775C24.7328 33.1109 24.8978 33.3074 25.0365 33.5686C25.1781 33.8265 25.2868 34.171 25.3632 34.5955C25.4403 35.017 25.4785 35.5457 25.4785 36.1716V36.938C25.4811 37.1843 25.4811 37.466 25.4749 37.784C25.4667 38.1009 25.4344 38.4249 25.3728 38.7515C25.3099 39.0814 25.2005 39.384 25.0421 39.6632C24.886 39.9446 24.6567 40.1706 24.356 40.3425C24.0559 40.5148 23.6636 40.6008 23.1801 40.6067H22.7914L22.7911 40.6071ZM31.5866 43.6353C32.4878 43.6382 33.2361 43.4746 33.8284 43.1391C34.4242 42.8039 34.8659 42.2695 35.1607 41.5367C35.4548 40.8065 35.5998 39.8477 35.5998 38.6658V34.4445C35.5998 33.5835 35.4548 32.8414 35.1607 32.2152C34.8659 31.5885 34.4242 31.102 33.8284 30.7605C33.2361 30.419 32.4878 30.2434 31.5866 30.2407C30.6854 30.2434 29.9393 30.419 29.3441 30.7605C28.7489 31.1017 28.3069 31.5885 28.0124 32.2152C27.7209 32.8414 27.5737 33.5835 27.5737 34.4445V38.6658C27.5737 39.8477 27.7209 40.8065 28.0124 41.5367C28.3069 42.2695 28.7489 42.8039 29.3441 43.1391C29.9393 43.4746 30.6854 43.6382 31.5866 43.6353ZM31.5866 42.2632C31.2005 42.2669 30.8613 42.2161 30.5701 42.1085C30.2779 42.002 30.0306 41.8185 29.8336 41.5569C29.6356 41.2924 29.4858 40.933 29.3856 40.476C29.2849 40.016 29.2351 39.4365 29.2351 38.7365V34.3904C29.2387 33.856 29.3026 33.4136 29.4298 33.0691C29.5569 32.7216 29.7187 32.4488 29.9156 32.25C30.1136 32.0512 30.3198 31.9055 30.5372 31.8132C30.7552 31.7246 30.9588 31.6645 31.1442 31.6413C31.3333 31.6171 31.4802 31.6085 31.5869 31.6121C31.6926 31.6085 31.8402 31.6171 32.0286 31.6413C32.2173 31.6645 32.4176 31.7246 32.6357 31.8132C32.854 31.9055 33.0596 32.0512 33.2575 32.25C33.4548 32.4491 33.6166 32.7216 33.7437 33.0691C33.8702 33.4136 33.9354 33.856 33.9384 34.3904V38.7365C33.9384 39.4365 33.8886 40.016 33.7878 40.476C33.6874 40.933 33.5372 41.2921 33.3402 41.5569C33.1426 41.8181 32.8952 42.002 32.6037 42.1085C32.3119 42.2161 31.9726 42.2669 31.5872 42.2632H31.5866ZM37.8712 31.9324H40.1163C40.1901 31.9297 40.2994 31.9417 40.4407 31.9682C40.5823 31.9948 40.7349 32.0482 40.9028 32.1255C41.0712 32.2065 41.2329 32.3253 41.3864 32.482C41.5399 32.6393 41.666 32.8501 41.7665 33.1113C41.8663 33.3721 41.916 33.699 41.92 34.0884C41.916 34.4893 41.8603 34.8215 41.7484 35.089C41.6393 35.3559 41.4954 35.5699 41.3156 35.7299C41.138 35.8876 40.947 36.009 40.7434 36.0864C40.5402 36.1663 40.3399 36.2204 40.1482 36.244C39.9592 36.2706 39.7951 36.2825 39.6561 36.2798H37.8709V31.933L37.8712 31.9324ZM37.8712 43.3684V37.704H40.0105C40.275 37.707 40.5669 37.6778 40.885 37.6177C41.2003 37.5583 41.5158 37.4511 41.834 37.3034C42.1492 37.1544 42.4378 36.9466 42.6999 36.6794C42.9651 36.4156 43.1743 36.0771 43.337 35.6642C43.4957 35.255 43.5781 34.7581 43.581 34.1766C43.5781 33.5743 43.5102 33.0575 43.3745 32.6333C43.2414 32.2062 43.059 31.8557 42.8235 31.5763C42.5909 31.2998 42.3231 31.0831 42.0194 30.9261C41.7161 30.7714 41.3943 30.6622 41.056 30.5995C40.7177 30.5341 40.3725 30.5039 40.0277 30.5076H36.245V43.3678H37.8709L37.8712 43.3684ZM45.7293 31.9324H45.7652L49.1766 43.3684H50.7142L54.1964 31.9324H54.232V43.3684H55.8581V30.5082H53.1713L50.0066 41.3024H49.9714L46.8423 30.5082H44.2082V43.3684H45.7286V31.9324H45.7293ZM65.3779 30.5079H63.7172L60.9942 37.7395L57.9355 30.5079H56.2741L60.2343 39.788L59.7389 41.0701C59.6595 41.2901 59.565 41.4624 59.456 41.5898C59.3476 41.7176 59.2004 41.8098 59.0143 41.8623C58.8285 41.9197 58.5815 41.9459 58.2718 41.9433H57.9191V43.3684H58.343C58.7613 43.3684 59.12 43.3319 59.4214 43.2582C59.7247 43.1869 59.984 43.071 60.2023 42.9167C60.4194 42.7624 60.6114 42.5639 60.7768 42.3203C60.9451 42.0767 61.1039 41.7856 61.2511 41.4471C61.401 41.1062 61.5574 40.7146 61.7192 40.2689L65.3786 30.5079H65.3779Z" fill="#2B2A29"/>
<path d="M74.5523 40.3036C74.5579 40.3036 74.6409 40.3036 74.8003 40.3036C74.9561 40.3036 75.1649 40.3036 75.4219 40.3036C75.6808 40.3036 75.964 40.3036 76.27 40.3036C76.5796 40.3036 76.8886 40.3036 77.1953 40.3036C77.5016 40.3036 77.7845 40.3036 78.0411 40.3036C78.3 40.3036 78.5065 40.3036 78.6627 40.3036C78.8162 40.3036 78.8985 40.3036 78.9011 40.3036L79.7147 43.368H81.3751L77.6462 30.5078H75.7022L72.0078 43.368H73.7753L74.5526 40.3036H74.5523ZM78.5302 38.8791H74.9238L76.6913 32.0574H76.7272L78.5302 38.8791Z" fill="#2B2A29"/>
<path d="M66.0321 40.2924L65.2548 43.3558H63.4863L67.1813 30.4956H69.126L72.855 43.3558H71.1932L70.3803 40.2924L70.0094 38.8676L68.2061 32.0455H68.1711L66.0321 40.2924Z" fill="#2B2A29"/>
<path d="M102.484 39.5529C102.486 39.2562 102.462 38.9379 102.416 38.5994C102.365 38.2585 102.271 37.923 102.133 37.5934C101.826 36.8394 101.251 36.318 100.501 36.0289C100.076 35.8656 99.552 35.78 98.9308 35.777H97.0388V30.54H94.3691V43.4002H99.0889C99.8991 43.3972 100.554 43.2369 101.054 42.925C101.552 42.614 101.918 42.1689 102.145 41.5951C102.374 41.0219 102.486 40.3398 102.483 39.5529H102.484ZM99.7786 39.4816C99.7812 39.8347 99.743 40.1586 99.661 40.4524C99.578 40.7428 99.4285 40.9774 99.2134 41.1533C98.9976 41.3282 98.6916 41.4205 98.2941 41.4231H97.0385V37.7537H98.4354C98.6356 37.7564 98.8178 37.8038 98.9805 37.9024C99.1455 38.0003 99.2868 38.1308 99.4044 38.297C99.525 38.46 99.6169 38.6472 99.6814 38.8493C99.7466 39.0538 99.7786 39.2645 99.7786 39.4816ZM102.705 41.4235H101.874V44.8785H104.544V43.4002H109.97V44.8785H112.64V41.4235H102.705ZM115.513 40.5506H118.482L119.155 43.4002H121.788L118.411 30.54H115.283L112.136 43.4002H114.912L115.513 40.5506ZM118.005 38.5732H115.937L116.892 34.0491H116.927L118.005 38.5732Z" fill="#2B2A29"/>
<path d="M105.945 40.5506L105.343 43.4002H102.568L105.715 30.54H108.844L112.22 43.4002H109.587L108.915 40.5506L108.437 38.5728L107.359 34.0491H107.324L105.945 40.5506Z" fill="#2B2A29"/>
<path d="M87.8684 40.5506L87.2672 43.4002H84.4922L87.6391 30.54H90.7682L94.1444 43.4002H91.5107L90.8381 40.5506L90.3615 38.5728L89.2827 34.0491H89.2472L87.8684 40.5506Z" fill="#2B2A29"/>
<path d="M0.103516 43.2339H13.6714V16.7349H0.103516V43.2339Z" fill="#0096D5"/>
<path d="M17.0938 12.9875H34.8106V0.000488281H17.0938V12.9875Z" fill="#AA2E32"/>
<path d="M17.0938 25.5403H25.6449V16.7358H17.0938V25.5403Z" fill="#AA2E32"/>
<path d="M0.103516 13.0308H13.6392V0H0.103516V13.0308Z" fill="#2B2A29"/>
<path d="M1.72893 60.5906H2.47136V55.3696H4.20852V54.7257H0V55.3696H1.72893V60.5906ZM7.94471 57.2149H5.74344V55.3616H8.08041V54.7257H5.00167V60.5906H8.20657V59.9553H5.74377V57.8408H7.94504V57.2146L7.94471 57.2149ZM13.2922 60.5906L11.5211 57.58L13.2501 54.726H12.3983L11.6308 56.1007C11.4197 56.4751 11.2767 56.7449 11.116 57.0931H11.0906C10.9391 56.7801 10.7787 56.4837 10.5679 56.1007L9.81758 54.726H8.96579L10.6358 57.6235L8.89794 60.5906H9.74182L10.4246 59.3028C10.7112 58.7891 10.8798 58.4761 11.0402 58.1372H11.0574C11.2346 58.4761 11.4111 58.7984 11.7063 59.2942L12.4401 60.5906H13.2919H13.2922ZM14.3048 54.7257V60.5906H15.0465V57.8408H17.7962V60.5906H18.5386V54.7257H17.7962V57.1797H15.0465V54.7257H14.3048ZM22.2752 54.6215C20.7567 54.6215 19.6437 55.8392 19.6437 57.7018C19.6437 59.4767 20.6895 60.6865 22.1991 60.6865C23.65 60.6865 24.8391 59.6069 24.8391 57.5972C24.8391 55.8485 23.8354 54.6215 22.2752 54.6215ZM22.2498 55.2395C23.4725 55.2395 24.063 56.4572 24.063 57.6318C24.063 58.963 23.4056 60.0685 22.2412 60.0685C21.0775 60.0685 20.4197 58.9457 20.4197 57.6835C20.4197 56.4047 21.0271 55.2391 22.2498 55.2391V55.2395ZM26.3236 54.7257V57.1966C26.3236 58.1369 26.2811 59.2852 25.8256 59.7376C25.6909 59.877 25.4547 60.0157 25.2264 60.0506L25.32 60.6599C25.6487 60.6599 25.9857 60.5209 26.1971 60.3815C26.9899 59.8246 27.0489 58.4071 27.0489 57.1359V55.3613H28.9211V60.5902H29.6632V54.7254H26.3236V54.7257ZM33.4004 54.6215C31.8819 54.6215 30.7683 55.8392 30.7683 57.7018C30.7683 59.4767 31.8147 60.6865 33.324 60.6865C34.7746 60.6865 35.9636 59.6069 35.9636 57.5972C35.9636 55.8485 34.9603 54.6215 33.4004 54.6215ZM33.3744 55.2395C34.5974 55.2395 35.1883 56.4572 35.1883 57.6318C35.1883 58.963 34.5302 60.0685 33.3658 60.0685C32.2021 60.0685 31.5446 58.9457 31.5446 57.6835C31.5446 56.4047 32.1517 55.2391 33.3744 55.2391V55.2395ZM37.0766 54.7257V60.5906H37.819V55.3616H40.105V54.7257H37.0766ZM40.9064 54.7257V60.5906H41.6909L43.4699 57.6673C43.8579 57.0231 44.2463 56.3447 44.5246 55.7005L44.55 55.7098C44.491 56.4489 44.4825 57.1452 44.4825 58.0934V60.5909H45.1735V54.726H44.44L42.6014 57.7456C42.188 58.4412 41.8339 59.0768 41.5552 59.6862L41.5299 59.6769C41.5806 58.8943 41.5974 58.12 41.5974 57.1973V54.7264H40.9064V54.7257ZM46.6244 54.7257V60.5906H47.409L49.1887 57.6673C49.5767 57.0231 49.9644 56.3447 50.243 55.7005L50.2681 55.7098C50.2094 56.4489 50.2009 57.1452 50.2009 58.0934V60.5909H50.8919V54.726H50.1587L48.3198 57.7456C47.9067 58.4412 47.5523 59.0768 47.2736 59.6862L47.2483 59.6769C47.2997 58.8943 47.3158 58.12 47.3158 57.1973V54.7264H46.6244V54.7257ZM56.3159 54.7257V57.1966C56.3159 58.1369 56.274 59.2852 55.8182 59.7376C55.6834 59.877 55.4469 60.0157 55.2193 60.0506L55.3119 60.6599C55.6406 60.6599 55.9779 60.5209 56.189 60.3815C56.9819 59.8246 57.0408 58.4071 57.0408 57.1359V55.3613H58.9137V60.5902H59.6558V54.7254H56.3159V54.7257ZM64.033 57.2146H61.8314V55.3613H64.1683V54.7254H61.0893V60.5902H64.2948V59.955H61.8317V57.8405H64.0333V57.2142L64.033 57.2146ZM66.2935 54.7257V56.2139C66.2935 57.2235 66.2178 58.0068 66.0238 58.6848C65.8871 59.1465 65.6769 59.5723 65.4658 59.9726L65.0425 59.9905L65.0847 61.9998H65.6601L65.7105 60.5902H69.2968L69.3469 61.9998H69.9207L69.9711 59.9905L69.4734 59.9726V54.7257H66.2938H66.2935ZM66.9763 55.3523H68.7395V59.9636H66.226C66.3861 59.6507 66.5715 59.2594 66.6904 58.8505C66.8923 58.1893 66.9763 57.3974 66.9763 56.4575V55.3526V55.3523ZM73.2853 54.6218C71.7672 54.6218 70.6535 55.8395 70.6535 57.7021C70.6535 59.4771 71.6997 60.6868 73.2096 60.6868C74.6602 60.6868 75.8492 59.6072 75.8492 57.5976C75.8492 55.8488 74.8453 54.6218 73.2853 54.6218ZM73.2599 55.2398C74.4826 55.2398 75.0732 56.4575 75.0732 57.6321C75.0732 58.9633 74.4158 60.0688 73.2511 60.0688C72.0873 60.0688 71.4296 58.9461 71.4296 57.6839C71.4296 56.4051 72.0369 55.2395 73.2599 55.2395V55.2398ZM76.9708 60.5737C77.2155 60.6085 77.6032 60.6437 78.1095 60.6437C79.0367 60.6437 79.6776 60.4694 80.066 60.0947C80.3611 59.8169 80.5554 59.4253 80.5554 58.9202C80.5554 58.0503 79.9221 57.5889 79.3832 57.4582V57.4326C79.9738 57.2152 80.3443 56.7187 80.3443 56.1442C80.3443 55.6835 80.1585 55.3354 79.8634 55.109C79.5179 54.813 79.0452 54.6822 78.3117 54.6822C77.8058 54.6822 77.2913 54.7347 76.9708 54.813V60.5737ZM77.704 55.3178C77.8226 55.2919 78.0159 55.2657 78.3539 55.2657C79.0956 55.2657 79.5933 55.5441 79.5933 56.2225C79.5933 56.7887 79.1384 57.2152 78.3707 57.2152H77.704V55.3178ZM77.704 57.7801H78.3117C79.1128 57.7801 79.7794 58.1196 79.7794 58.9112C79.7794 59.7638 79.0792 60.0509 78.3203 60.0509C78.0591 60.0509 77.8558 60.0423 77.704 60.0161V57.7798V57.7801ZM81.7113 54.726V60.5737C81.9557 60.6085 82.3437 60.6437 82.8496 60.6437C83.6164 60.6437 84.4092 60.4601 84.8733 59.956C85.1434 59.6603 85.3117 59.2514 85.3117 58.7114C85.3117 57.415 84.2913 56.8757 83.1276 56.8757C82.9418 56.8757 82.6131 56.893 82.4445 56.9278V54.7264H81.7113V54.726ZM82.4445 57.5196C82.5377 57.5106 82.7561 57.4847 83.0265 57.4847C83.7854 57.4847 84.5446 57.8236 84.5446 58.738C84.5446 59.6254 83.8447 60.0513 83.0347 60.0513C82.79 60.0513 82.5963 60.0426 82.4441 60.0078V57.5196H82.4445ZM85.9441 54.726V60.5909H86.6862V54.726H85.9441ZM92.1352 60.5909L90.3641 57.5803L92.0931 54.7264H91.2413L90.4735 56.1011C90.263 56.4754 90.1201 56.7453 89.9596 57.0934H89.9343C89.7821 56.7805 89.6224 56.4841 89.4109 56.1011L88.6602 54.7264H87.8088L89.4784 57.6238L87.7413 60.5909H88.5845L89.2673 59.3032C89.5538 58.7894 89.7232 58.4764 89.8832 58.1376H89.9C90.0772 58.4764 90.2544 58.7987 90.5496 59.2945L91.2831 60.5909H92.1349H92.1352ZM96.7239 54.726V60.5909H97.4663V55.3619H100.106V60.5909H100.848V54.726H96.7239ZM104.585 54.6218C103.066 54.6218 101.953 55.8395 101.953 57.7021C101.953 59.4771 102.999 60.6868 104.508 60.6868C105.96 60.6868 107.148 59.6072 107.148 57.5976C107.148 55.8488 106.145 54.6218 104.585 54.6218ZM104.56 55.2398C105.782 55.2398 106.372 56.4575 106.372 57.6321C106.372 58.9633 105.715 60.0688 104.551 60.0688C103.387 60.0688 102.729 58.9461 102.729 57.6839C102.729 56.4051 103.336 55.2395 104.56 55.2395V55.2398ZM108.633 54.726V57.197C108.633 58.1372 108.591 59.2856 108.135 59.7379C108 59.8773 107.764 60.0161 107.536 60.0509L107.629 60.6603C107.958 60.6603 108.295 60.5212 108.507 60.3818C109.299 59.8249 109.358 58.4074 109.358 57.1362V55.3616H111.231V60.5906H111.973V54.7257H108.633V54.726ZM116.351 57.2149H114.149V55.3616H116.485V54.7257H113.406V60.5906H116.612V59.9553H114.149V57.8408H116.351V57.2146L116.351 57.2149ZM117.734 54.726V60.5909H118.517L120.297 57.6676C120.685 57.0234 121.073 56.345 121.352 55.7008L121.377 55.7101C121.318 56.4492 121.31 57.1455 121.31 58.0938V60.5912H122.001V54.7264H121.267L119.429 57.7459C119.015 58.4416 118.661 59.0771 118.382 59.6865L118.357 59.6772C118.408 58.8946 118.424 58.1203 118.424 57.1976V54.7267H117.734V54.726ZM118.788 53.499C118.83 54.0735 119.159 54.4389 119.85 54.4389C120.568 54.4389 120.905 54.0822 120.947 53.499H120.382C120.347 53.7864 120.256 54.039 119.868 54.039C119.471 54.039 119.387 53.7692 119.352 53.499H118.788H118.788Z" fill="white"/>
</svg>
